{
  "accessors": [
    {
      "bufferView": 2,
      "componentType": 5126,
      "count": 25513,
      "max": [
        0.47326725721359253,
        0.47812944650650024,
        0.49929654598236084
      ],
      "min": [
        -0.46452072262763977,
        -0.48664760589599609,
        -0.63316935300827026
      ],
      "type": "VEC3"
    },
    {
      "bufferView": 2,
      "byteOffset": 306156,
      "componentType": 5126,
      "count": 25513,
      "max": [
        0.99999845027923584,
        0.99994552135467529,
        0.99989891052246094
      ],
      "min": [
        -0.99998164176940918,
        -0.99999165534973145,
        -0.9998856782913208
      ],
      "type": "VEC3"
    },
    {
      "bufferView": 3,
      "componentType": 5126,
      "count": 25513,
      "max": [
        0.93384599685668945,
        0.99041378498077393,
        0.99111747741699219,
        1
      ],
      "min": [
        -0.89099431037902832,
        -0.94631356000900269,
        -0.99819231033325195,
        1
      ],
      "type": "VEC4"
    },
    {
      "bufferView": 1,
      "componentType": 5126,
      "count": 25513,
      "max": [
        0.99999994039535522,
        0.99999994039535522
      ],
      "min": [
        0,
        0
      ],
      "type": "VEC2"
    },
    {
      "bufferView": 1,
      "byteOffset": 204104,
      "componentType": 5126,
      "count": 25513,
      "max": [
        0.99999994039535522,
        0.99999994039535522
      ],
      "min": [
        0,
        0
      ],
      "type": "VEC2"
    },
    {
      "bufferView": 0,
      "componentType": 5125,
      "count": 147456,
      "max": [
        25512
      ],
      "min": [
        0
      ],
      "type": "SCALAR"
    },
    {
      "bufferView": 4,
      "componentType": 5126,
      "count": 145,
      "max": [
        8.2916669845581055
      ],
      "min": [
        2.0833332538604736
      ],
      "type": "SCALAR"
    },
    {
      "bufferView": 5,
      "componentType": 5126,
      "count": 145,
      "max": [
        0.85983169078826904,
        0.028321249410510063,
        0.11065676063299179,
        0.66936105489730835
      ],
      "min": [
        0.74022388458251953,
        -0.12973226606845856,
        -0.024136610329151154,
        0.49763685464859009
      ],
      "type": "VEC4"
    },
    {
      "bufferView": 4,
      "byteOffset": 580,
      "componentType": 5126,
      "count": 164,
      "max": [
        9.625
      ],
      "min": [
        0.70833331346511841
      ],
      "type": "SCALAR"
    },
    {
      "bufferView": 5,
      "byteOffset": 2320,
      "componentType": 5126,
      "count": 164,
      "max": [
        0.85983175039291382,
        0.028321277350187302,
        0.11065673828125,
        0.66936105489730835
      ],
      "min": [
        0.74022388458251953,
        -0.12973226606845856,
        -0.024136630818247795,
        0.49763688445091248
      ],
      "type": "VEC4"
    }
  ],
  "animations": [
    {
      "channels": [
        {
          "sampler": 0,
          "target": {
            "node": 4,
            "path": "rotation"
          }
        }
      ],
      "name": "Action",
      "samplers": [
        {
          "input": 6,
          "interpolation": "LINEAR",
          "output": 7
        }
      ]
    },
    {
      "channels": [
        {
          "sampler": 0,
          "target": {
            "node": 4,
            "path": "rotation"
          }
        }
      ],
      "name": "eggAction.001",
      "samplers": [
        {
          "input": 8,
          "interpolation": "LINEAR",
          "output": 9
        }
      ]
    }
  ],
  "asset": {
    "extras": {
      "author": "Arturo J. Real (https://sketchfab.com/arturojreal)",
      "license": "CC-BY-NC-SA-4.0 (http://creativecommons.org/licenses/by-nc-sa/4.0/)",
      "source": "https://sketchfab.com/3d-models/sculpt-january-2021-dragons-egg-26f24f5defe740ad8964d3fb8f81b6b0",
      "title": "Sculpt January 2021: Dragon's Egg"
    },
    "generator": "Sketchfab-10.14.1",
    "version": "2.0"
  },
  "bufferViews": [
    {
      "buffer": 0,
      "byteLength": 589824,
      "byteOffset": 0,
      "name": "floatBufferViews",
      "target": 34963
    },
    {
      "buffer": 0,
      "byteLength": 408208,
      "byteOffset": 589824,
      "byteStride": 8,
      "name": "floatBufferViews",
      "target": 34962
    },
    {
      "buffer": 0,
      "byteLength": 612312,
      "byteOffset": 998032,
      "byteStride": 12,
      "name": "floatBufferViews",
      "target": 34962
    },
    {
      "buffer": 0,
      "byteLength": 408208,
      "byteOffset": 1610344,
      "byteStride": 16,
      "name": "floatBufferViews",
      "target": 34962
    },
    {
      "buffer": 0,
      "byteLength": 1236,
      "byteOffset": 2018552,
      "name": "floatBufferViews"
    },
    {
      "buffer": 0,
      "byteLength": 4944,
      "byteOffset": 2019788,
      "byteStride": 16,
      "name": "floatBufferViews"
    }
  ],
  "buffers": [
    {
      "byteLength": 2024732,
      "uri": "scene.bin"
    }
  ],
  "images": [
    {
      "uri": "textures/material_baseColor.png"
    },
    {
      "uri": "textures/material_normal.png"
    }
  ],
  "materials": [
    {
      "doubleSided": true,
      "emissiveFactor": [
        0,
        0,
        0
      ],
      "name": "material",
      "normalTexture": {
        "index": 1,
        "scale": 0.90000100000000005,
        "texCoord": 0
      },
      "pbrMetallicRoughness": {
        "baseColorFactor": [
          1,
          1,
          1,
          1
        ],
        "baseColorTexture": {
          "index": 0,
          "texCoord": 0
        },
        "metallicFactor": 0,
        "roughnessFactor": 0.5
      }
    }
  ],
  "meshes": [
    {
      "primitives": [
        {
          "attributes": {
            "NORMAL": 1,
            "POSITION": 0,
            "TANGENT": 2,
            "TEXCOORD_0": 3,
            "TEXCOORD_1": 4
          },
          "indices": 5,
          "material": 0,
          "mode": 4
        }
      ]
    }
  ],
  "nodes": [
    {
      "children": [
        1
      ],
      "name": "RootNode (gltf orientation matrix)",
      "rotation": [
        -0.70710678118654746,
        -0,
        -0,
        0.70710678118654757
      ]
    },
    {
      "children": [
        2
      ],
      "name": "RootNode (model correction matrix)"
    },
    {
      "children": [
        3
      ],
      "name": "root"
    },
    {
      "children": [
        4
      ],
      "matrix": [
        1,
        0,
        0,
        0,
        0,
        2.2204460492503131e-16,
        1,
        0,
        0,
        -1,
        2.2204460492503131e-16,
        0,
        0,
        0,
        0,
        1
      ],
      "name": "GLTF_SceneRootNode"
    },
    {
      "children": [
        5
      ],
      "name": "baked_egg_6",
      "rotation": [
        0.7736823558807373,
        -0.014890730381011963,
        0.07021709531545639,
        0.62949460744857788
      ]
    },
    {
      "mesh": 0,
      "name": ""
    }
  ],
  "samplers": [
    {
      "magFilter": 9729,
      "minFilter": 9987,
      "wrapS": 10497,
      "wrapT": 10497
    }
  ],
  "scene": 0,
  "scenes": [
    {
      "name": "OSG_Scene",
      "nodes": [
        0
      ]
    }
  ],
  "textures": [
    {
      "sampler": 0,
      "source": 0
    },
    {
      "sampler": 0,
      "source": 1
    }
  ]
}

