{
  "accessors": [
    {
      "bufferView": 2,
      "componentType": 5126,
      "count": 10545,
      "max": [
        0.27955871820449829,
        0.75381183624267578,
        0.6554112434387207
      ],
      "min": [
        -0.27955871820449829,
        0,
        -0.6554112434387207
      ],
      "type": "VEC3"
    },
    {
      "bufferView": 2,
      "byteOffset": 126540,
      "componentType": 5126,
      "count": 10545,
      "max": [
        0.99998873472213745,
        0.99995428323745728,
        0.99981886148452759
      ],
      "min": [
        -0.99993628263473511,
        -0.9999232292175293,
        -0.99856066703796387
      ],
      "type": "VEC3"
    },
    {
      "bufferView": 3,
      "componentType": 5126,
      "count": 10545,
      "max": [
        0.99997246265411377,
        0.99999833106994629,
        0.99995964765548706,
        1
      ],
      "min": [
        -0.99936026334762573,
        -0.99995946884155273,
        -0.99958473443984985,
        -1
      ],
      "type": "VEC4"
    },
    {
      "bufferView": 3,
      "byteOffset": 168720,
      "componentType": 5126,
      "count": 10545,
      "max": [
        1,
        1,
        1,
        1
      ],
      "min": [
        1,
        1,
        1,
        1
      ],
      "type": "VEC4"
    },
    {
      "bufferView": 1,
      "componentType": 5126,
      "count": 10545,
      "max": [
        0.99835920333862305,
        0.9948725700378418
      ],
      "min": [
        0.00097465887665748596,
        0.00097465538419783115
      ],
      "type": "VEC2"
    },
    {
      "bufferView": 1,
      "byteOffset": 84360,
      "componentType": 5126,
      "count": 10545,
      "max": [
        0.99835920333862305,
        0.9948725700378418
      ],
      "min": [
        0.00097465887665748596,
        0.00097465538419783115
      ],
      "type": "VEC2"
    },
    {
      "bufferView": 0,
      "componentType": 5125,
      "count": 30087,
      "max": [
        10544
      ],
      "min": [
        0
      ],
      "type": "SCALAR"
    }
  ],
  "asset": {
    "extras": {
      "author": "David Wigforss (https://sketchfab.com/dwigfor)",
      "license": "CC-BY-NC-4.0 (http://creativecommons.org/licenses/by-nc/4.0/)",
      "source": "https://sketchfab.com/3d-models/dinosaur-1-0c4c0f6b10e64b26818feb12020a5684",
      "title": "Dinosaur 1"
    },
    "generator": "Sketchfab-5.47.0",
    "version": "2.0"
  },
  "bufferViews": [
    {
      "buffer": 0,
      "byteLength": 120348,
      "byteOffset": 0,
      "name": "floatBufferViews",
      "target": 34963
    },
    {
      "buffer": 0,
      "byteLength": 168720,
      "byteOffset": 120348,
      "byteStride": 8,
      "name": "floatBufferViews",
      "target": 34962
    },
    {
      "buffer": 0,
      "byteLength": 253080,
      "byteOffset": 289068,
      "byteStride": 12,
      "name": "floatBufferViews",
      "target": 34962
    },
    {
      "buffer": 0,
      "byteLength": 337440,
      "byteOffset": 542148,
      "byteStride": 16,
      "name": "floatBufferViews",
      "target": 34962
    }
  ],
  "buffers": [
    {
      "byteLength": 879588,
      "uri": "scene.bin"
    }
  ],
  "images": [
    {
      "uri": "textures/MAT_Dinosaur1_baseColor.jpeg"
    },
    {
      "uri": "textures/MAT_Dinosaur1_normal.png"
    }
  ],
  "materials": [
    {
      "doubleSided": true,
      "emissiveFactor": [
        0,
        0,
        0
      ],
      "name": "MAT_Dinosaur1",
      "normalTexture": {
        "index": 1,
        "scale": 1,
        "texCoord": 0
      },
      "pbrMetallicRoughness": {
        "baseColorFactor": [
          1,
          1,
          1,
          1
        ],
        "baseColorTexture": {
          "index": 0,
          "texCoord": 0
        },
        "metallicFactor": 0,
        "roughnessFactor": 0.95770514949999996
      }
    }
  ],
  "meshes": [
    {
      "name": "geo1_MAT_Dinosaur1_0",
      "primitives": [
        {
          "attributes": {
            "COLOR_0": 3,
            "NORMAL": 1,
            "POSITION": 0,
            "TANGENT": 2,
            "TEXCOORD_0": 4,
            "TEXCOORD_1": 5
          },
          "indices": 6,
          "material": 0,
          "mode": 4
        }
      ]
    }
  ],
  "nodes": [
    {
      "children": [
        1
      ],
      "name": "RootNode (gltf orientation matrix)",
      "rotation": [
        -0.70710678118654746,
        -0,
        -0,
        0.70710678118654757
      ]
    },
    {
      "children": [
        2
      ],
      "name": "RootNode (model correction matrix)"
    },
    {
      "children": [
        3
      ],
      "matrix": [
        1,
        0,
        0,
        0,
        0,
        0,
        1,
        0,
        0,
        -1,
        0,
        0,
        0,
        0,
        0,
        1
      ],
      "name": "mesh.fbx"
    },
    {
      "children": [
        4
      ],
      "name": "RootNode"
    },
    {
      "children": [
        5
      ],
      "name": "geo1"
    },
    {
      "mesh": 0,
      "name": "geo1_MAT_Dinosaur1_0"
    }
  ],
  "samplers": [
    {
      "magFilter": 9729,
      "minFilter": 9987,
      "wrapS": 10497,
      "wrapT": 10497
    }
  ],
  "scene": 0,
  "scenes": [
    {
      "name": "OSG_Scene",
      "nodes": [
        0
      ]
    }
  ],
  "textures": [
    {
      "sampler": 0,
      "source": 0
    },
    {
      "sampler": 0,
      "source": 1
    }
  ]
}

